# xmcd
#
# Track frame offsets:
#	150
#	40785
#	61836
#	171812
#	212733
#	243848
#
# Disc length: 3694 seconds
#
# Revision: 1
# Processed by: cddbd v1.5.2PL0 Copyright (c) Steve Scherf et al.
# Submitted via: audiograbber 1.83.01
#
DISCID=470e6c06
DTITLE=Grateful Dead - 70-06-13 Honolulu Civic Auditorium, Honolulu HI
DYEAR=1900
DGENRE=
TTITLE0=New Speedway Boogie
TTITLE1=Casey Jones
TTITLE2=Turn On Your Lovelight
TTITLE3=Easy Wind (soundboard version)
TTITLE4=Uncle John's Band (audience version)
TTITLE5=Easy Wind (matrix version)
EXTD=
EXTT0=
EXTT1=
EXTT2=
EXTT3=
EXTT4=
EXTT5=
PLAYORDER=
